<mxfile host="app.diagrams.net" modified="2023-01-09T22:04:44.937Z" agent="5.0 (Windows NT 10.0; Win64; x64) AppleWebKit/537.36 (KHTML, like Gecko) Chrome/108.0.0.0 Safari/537.36 OPR/94.0.0.0" version="20.8.3" etag="bvn3Hlbt-BmE4MIvz05k" type="github">
  <diagram id="MJv2JSLuqFIHF2BM4DNN" name="Page-1">
    <mxGraphModel dx="2012" dy="632" grid="1" gridSize="10" guides="1" tooltips="1" connect="1" arrows="1" fold="1" page="1" pageScale="1" pageWidth="850" pageHeight="1100" math="0" shadow="0">
      <root>
        <mxCell id="0" />
        <mxCell id="1" parent="0" />
        <mxCell id="dxif4diBA1amvi_9y9xM-12" value="Training data&lt;br&gt;(2018-2020)" style="rounded=1;whiteSpace=wrap;html=1;fillColor=#f5f5f5;fontColor=#333333;strokeColor=#666666;" vertex="1" parent="1">
          <mxGeometry x="320" y="190" width="120" height="60" as="geometry" />
        </mxCell>
        <mxCell id="dxif4diBA1amvi_9y9xM-15" value="Testing data&lt;br&gt;(2021)" style="rounded=1;whiteSpace=wrap;html=1;fillColor=#f5f5f5;fontColor=#333333;strokeColor=#666666;" vertex="1" parent="1">
          <mxGeometry x="560" y="190" width="120" height="60" as="geometry" />
        </mxCell>
        <mxCell id="dxif4diBA1amvi_9y9xM-16" value="Original dataset" style="rounded=1;whiteSpace=wrap;html=1;fillColor=#f5f5f5;fontColor=#333333;strokeColor=#666666;" vertex="1" parent="1">
          <mxGeometry x="440" y="110" width="120" height="60" as="geometry" />
        </mxCell>
        <mxCell id="dxif4diBA1amvi_9y9xM-17" value="" style="endArrow=classic;html=1;rounded=0;exitX=1;exitY=0.5;exitDx=0;exitDy=0;entryX=0.5;entryY=0;entryDx=0;entryDy=0;" edge="1" parent="1" source="dxif4diBA1amvi_9y9xM-16" target="dxif4diBA1amvi_9y9xM-15">
          <mxGeometry width="50" height="50" relative="1" as="geometry">
            <mxPoint x="570" y="150" as="sourcePoint" />
            <mxPoint x="620" y="100" as="targetPoint" />
            <Array as="points">
              <mxPoint x="620" y="140" />
            </Array>
          </mxGeometry>
        </mxCell>
        <mxCell id="dxif4diBA1amvi_9y9xM-18" value="" style="endArrow=classic;html=1;rounded=0;exitX=0;exitY=0.5;exitDx=0;exitDy=0;entryX=0.5;entryY=0;entryDx=0;entryDy=0;" edge="1" parent="1" source="dxif4diBA1amvi_9y9xM-16" target="dxif4diBA1amvi_9y9xM-12">
          <mxGeometry width="50" height="50" relative="1" as="geometry">
            <mxPoint x="390" y="140" as="sourcePoint" />
            <mxPoint x="440" y="90" as="targetPoint" />
            <Array as="points">
              <mxPoint x="380" y="140" />
            </Array>
          </mxGeometry>
        </mxCell>
        <mxCell id="dxif4diBA1amvi_9y9xM-21" value="" style="edgeStyle=orthogonalEdgeStyle;rounded=0;orthogonalLoop=1;jettySize=auto;html=1;" edge="1" parent="1" source="dxif4diBA1amvi_9y9xM-19" target="dxif4diBA1amvi_9y9xM-20">
          <mxGeometry relative="1" as="geometry" />
        </mxCell>
        <mxCell id="dxif4diBA1amvi_9y9xM-31" value="" style="edgeStyle=orthogonalEdgeStyle;rounded=0;orthogonalLoop=1;jettySize=auto;html=1;" edge="1" parent="1" source="dxif4diBA1amvi_9y9xM-19" target="dxif4diBA1amvi_9y9xM-30">
          <mxGeometry relative="1" as="geometry" />
        </mxCell>
        <mxCell id="dxif4diBA1amvi_9y9xM-19" value="Feature scaling&lt;br&gt;(Robust scaling)" style="rounded=1;whiteSpace=wrap;html=1;fillColor=#f5f5f5;fontColor=#333333;strokeColor=#666666;" vertex="1" parent="1">
          <mxGeometry x="140" y="190" width="120" height="60" as="geometry" />
        </mxCell>
        <mxCell id="dxif4diBA1amvi_9y9xM-23" value="" style="edgeStyle=orthogonalEdgeStyle;rounded=0;orthogonalLoop=1;jettySize=auto;html=1;entryX=0.5;entryY=0;entryDx=0;entryDy=0;" edge="1" parent="1" source="dxif4diBA1amvi_9y9xM-20" target="dxif4diBA1amvi_9y9xM-40">
          <mxGeometry relative="1" as="geometry">
            <mxPoint x="200" y="349.9999999999999" as="targetPoint" />
          </mxGeometry>
        </mxCell>
        <mxCell id="dxif4diBA1amvi_9y9xM-20" value="Model/algorithm fitting parameters/rules estimation" style="whiteSpace=wrap;html=1;rounded=1;fillColor=#f5f5f5;fontColor=#333333;strokeColor=#666666;" vertex="1" parent="1">
          <mxGeometry x="135" y="270" width="130" height="70" as="geometry" />
        </mxCell>
        <mxCell id="dxif4diBA1amvi_9y9xM-24" value="&lt;b&gt;Bayesian optimization&lt;/b&gt;" style="text;html=1;strokeColor=#d6b656;fillColor=#fff2cc;align=center;verticalAlign=middle;whiteSpace=wrap;rounded=0;" vertex="1" parent="1">
          <mxGeometry x="147.5" y="70" width="105" height="30" as="geometry" />
        </mxCell>
        <mxCell id="dxif4diBA1amvi_9y9xM-27" value="Sequentially update hyperparameters search space" style="whiteSpace=wrap;html=1;rounded=1;fillColor=#f5f5f5;fontColor=#333333;strokeColor=#666666;" vertex="1" parent="1">
          <mxGeometry x="140" y="440" width="120" height="60" as="geometry" />
        </mxCell>
        <mxCell id="dxif4diBA1amvi_9y9xM-30" value="Randomly pick hyperparameters" style="whiteSpace=wrap;html=1;rounded=1;fillColor=#f5f5f5;fontColor=#333333;strokeColor=#666666;" vertex="1" parent="1">
          <mxGeometry x="140" y="110" width="120" height="60" as="geometry" />
        </mxCell>
        <mxCell id="dxif4diBA1amvi_9y9xM-42" value="" style="edgeStyle=orthogonalEdgeStyle;rounded=0;orthogonalLoop=1;jettySize=auto;html=1;" edge="1" parent="1" source="dxif4diBA1amvi_9y9xM-40" target="dxif4diBA1amvi_9y9xM-27">
          <mxGeometry relative="1" as="geometry" />
        </mxCell>
        <mxCell id="dxif4diBA1amvi_9y9xM-40" value="Get cross-validation mean test score" style="whiteSpace=wrap;html=1;rounded=1;fillColor=#f5f5f5;fontColor=#333333;strokeColor=#666666;" vertex="1" parent="1">
          <mxGeometry x="140" y="360" width="120" height="60" as="geometry" />
        </mxCell>
        <mxCell id="dxif4diBA1amvi_9y9xM-43" value="" style="endArrow=classic;startArrow=classic;html=1;rounded=0;exitX=0;exitY=0.5;exitDx=0;exitDy=0;entryX=0;entryY=0.5;entryDx=0;entryDy=0;" edge="1" parent="1" source="dxif4diBA1amvi_9y9xM-27" target="dxif4diBA1amvi_9y9xM-30">
          <mxGeometry width="50" height="50" relative="1" as="geometry">
            <mxPoint x="70" y="450" as="sourcePoint" />
            <mxPoint x="110" y="140" as="targetPoint" />
            <Array as="points">
              <mxPoint x="110" y="470" />
              <mxPoint x="110" y="140" />
            </Array>
          </mxGeometry>
        </mxCell>
        <mxCell id="dxif4diBA1amvi_9y9xM-44" value="Data pre-processing" style="text;html=1;strokeColor=#6c8ebf;fillColor=#dae8fc;align=center;verticalAlign=middle;whiteSpace=wrap;rounded=0;" vertex="1" parent="1">
          <mxGeometry x="-20" y="205" width="120" height="30" as="geometry" />
        </mxCell>
        <mxCell id="dxif4diBA1amvi_9y9xM-45" value="Data processing" style="text;html=1;strokeColor=#6c8ebf;fillColor=#dae8fc;align=center;verticalAlign=middle;whiteSpace=wrap;rounded=0;" vertex="1" parent="1">
          <mxGeometry x="-20" y="290" width="120" height="30" as="geometry" />
        </mxCell>
        <mxCell id="dxif4diBA1amvi_9y9xM-46" value="Data post-processing" style="text;html=1;strokeColor=#6c8ebf;fillColor=#dae8fc;align=center;verticalAlign=middle;whiteSpace=wrap;rounded=0;" vertex="1" parent="1">
          <mxGeometry x="-20" y="375" width="120" height="30" as="geometry" />
        </mxCell>
        <mxCell id="dxif4diBA1amvi_9y9xM-52" value="" style="edgeStyle=orthogonalEdgeStyle;rounded=0;orthogonalLoop=1;jettySize=auto;html=1;" edge="1" parent="1" source="dxif4diBA1amvi_9y9xM-50" target="dxif4diBA1amvi_9y9xM-51">
          <mxGeometry relative="1" as="geometry" />
        </mxCell>
        <mxCell id="dxif4diBA1amvi_9y9xM-50" value="Optimal model/algorithm configuration" style="rounded=1;whiteSpace=wrap;html=1;fillColor=#f5f5f5;fontColor=#333333;strokeColor=#666666;" vertex="1" parent="1">
          <mxGeometry x="315" y="270" width="130" height="70" as="geometry" />
        </mxCell>
        <mxCell id="dxif4diBA1amvi_9y9xM-51" value="Retrained model on entire training set" style="whiteSpace=wrap;html=1;rounded=1;fillColor=#f5f5f5;fontColor=#333333;strokeColor=#666666;" vertex="1" parent="1">
          <mxGeometry x="320" y="360" width="120" height="60" as="geometry" />
        </mxCell>
        <mxCell id="dxif4diBA1amvi_9y9xM-53" value="Final evaluation" style="whiteSpace=wrap;html=1;rounded=1;fillColor=#f5f5f5;fontColor=#333333;strokeColor=#666666;" vertex="1" parent="1">
          <mxGeometry x="440" y="440" width="120" height="60" as="geometry" />
        </mxCell>
        <mxCell id="dxif4diBA1amvi_9y9xM-55" value="" style="endArrow=classic;html=1;rounded=0;exitX=0.5;exitY=1;exitDx=0;exitDy=0;" edge="1" parent="1" source="dxif4diBA1amvi_9y9xM-12" target="dxif4diBA1amvi_9y9xM-50">
          <mxGeometry width="50" height="50" relative="1" as="geometry">
            <mxPoint x="440" y="310" as="sourcePoint" />
            <mxPoint x="490" y="260" as="targetPoint" />
          </mxGeometry>
        </mxCell>
        <mxCell id="dxif4diBA1amvi_9y9xM-56" value="" style="endArrow=classic;html=1;rounded=0;exitX=0.5;exitY=1;exitDx=0;exitDy=0;entryX=0;entryY=0.5;entryDx=0;entryDy=0;" edge="1" parent="1" source="dxif4diBA1amvi_9y9xM-51" target="dxif4diBA1amvi_9y9xM-53">
          <mxGeometry width="50" height="50" relative="1" as="geometry">
            <mxPoint x="450" y="395" as="sourcePoint" />
            <mxPoint x="500" y="345" as="targetPoint" />
            <Array as="points">
              <mxPoint x="380" y="470" />
            </Array>
          </mxGeometry>
        </mxCell>
        <mxCell id="dxif4diBA1amvi_9y9xM-57" value="" style="endArrow=classic;html=1;rounded=0;exitX=0.5;exitY=1;exitDx=0;exitDy=0;entryX=1;entryY=0.5;entryDx=0;entryDy=0;" edge="1" parent="1" source="dxif4diBA1amvi_9y9xM-15" target="dxif4diBA1amvi_9y9xM-53">
          <mxGeometry width="50" height="50" relative="1" as="geometry">
            <mxPoint x="450" y="350" as="sourcePoint" />
            <mxPoint x="500" y="300" as="targetPoint" />
            <Array as="points">
              <mxPoint x="620" y="470" />
            </Array>
          </mxGeometry>
        </mxCell>
        <mxCell id="dxif4diBA1amvi_9y9xM-58" value="&lt;b&gt;Experimental setting&lt;/b&gt;" style="text;html=1;strokeColor=#d6b656;fillColor=#fff2cc;align=center;verticalAlign=middle;whiteSpace=wrap;rounded=0;" vertex="1" parent="1">
          <mxGeometry x="430" y="70" width="140" height="30" as="geometry" />
        </mxCell>
        <mxCell id="dxif4diBA1amvi_9y9xM-59" value="" style="endArrow=none;dashed=1;html=1;rounded=0;" edge="1" parent="1">
          <mxGeometry width="50" height="50" relative="1" as="geometry">
            <mxPoint x="290" y="500" as="sourcePoint" />
            <mxPoint x="290" y="70" as="targetPoint" />
          </mxGeometry>
        </mxCell>
        <mxCell id="dxif4diBA1amvi_9y9xM-60" value="" style="endArrow=classic;html=1;rounded=0;exitX=1;exitY=0.5;exitDx=0;exitDy=0;entryX=0;entryY=0.5;entryDx=0;entryDy=0;" edge="1" parent="1" source="dxif4diBA1amvi_9y9xM-27" target="dxif4diBA1amvi_9y9xM-50">
          <mxGeometry width="50" height="50" relative="1" as="geometry">
            <mxPoint x="300" y="540" as="sourcePoint" />
            <mxPoint x="350" y="490" as="targetPoint" />
            <Array as="points">
              <mxPoint x="290" y="470" />
              <mxPoint x="290" y="305" />
            </Array>
          </mxGeometry>
        </mxCell>
      </root>
    </mxGraphModel>
  </diagram>
</mxfile>
